<svg viewBox="0 0 160 140" fill="none" xmlns="http://www.w3.org/2000/svg" class="h-14 w-auto"><path d="M80 15 L125 35 L80 55 L35 35 Z" fill="#1e2259"></path><path d="M58 45 V56 C58 64, 102 64, 102 56 V45" fill="#1e2259"></path><path d="M110 38 L118 52 V64" stroke="#1e2259" stroke-width="2.5" stroke-linecap="round" stroke-linejoin="round"></path><circle cx="118" cy="65" r="2.5" fill="#1e2259"></circle><path d="M32 94 C32 60, 128 60, 128 94" stroke="#1e2259" stroke-width="7" stroke-linecap="round" fill="none"></path><path d="M44 94 C44 71, 116 71, 116 94" stroke="#1e2259" stroke-width="4" stroke-linecap="round" fill="none"></path><path d="M62 90 C56 90, 52 94, 52 99 C52 106, 68 104, 68 111 C68 116, 62 120, 56 120 C50 120, 48 116, 48 114" stroke="#009edb" stroke-width="7.5" stroke-linecap="round" stroke-linejoin="round" fill="none"></path><path d="M98 100 C98 94, 92 90, 84 90 C76 90, 72 96, 72 105 C72 114, 76 120, 84 120 C92 120, 96 114, 96 108 H84" stroke="#108b4b" stroke-width="7.5" stroke-linecap="round" stroke-linejoin="round" fill="none"></path><line x1="30" y1="130" x2="130" y2="130" stroke="#108b4b" stroke-width="2" stroke-linecap="round"></line></svg>